<svg width="60" height="60" viewBox="0 0 60 60" xmlns="http://www.w3.org/2000/svg">
    <g fill="none" fill-rule="evenodd">
        <path fill="#060808" opacity=".16" d="m45.228 59.946 14.732-.855-19.074-1.616-35.569.989z"/>
        <path fill="#ECECEB" d="m0 51.812 43.237 4.367 6.479-51.157L7.947 2.697z"/>
        <path fill="#000001" opacity=".1" d="m0 51.812 42.516 3.178 6.786-49.994L7.947 2.697z"/>
        <path fill="#ECECEB" d="m42.115 54.296 7.026-51.292-41.194-.307L0 51.812z"/>
        <path fill="#A3A3A3" d="m0 51.812 3.032 2.79 42.196 4.33-.975-2.152-1.31-1.109z"/>
        <path fill="#DDDDDC" d="m42.943 55.671 2.285 3.26 6.61-51.238-2.122-2.67z"/>
        <path fill="#000001" opacity=".1" d="m0 51.812 41.087 1.295 6.838-50.103-39.978-.307z"/>
        <path fill="#000001" opacity=".1" d="m44.212 57.475-.066-.014-42.463-4.1-.28-.254L44.078 57.3l6.759-50.876.146.186z"/>
        <path fill="#ECECEB" d="m40.246 49.754-20.477 1.002-19.648.334L7.947 2.697 47.004 0z"/>
        <path fill="#738D57" d="M45.268 12.782 5.877 15.454 7.815 3.565l.921-.694L46.376.454l.495.414z"/>
        <path fill="#50A9AA" d="m20.837 2.67-13.022.895.132-.868 13.037-.894.053.44z"/>
        <path fill="#E5C828" d="m33.887 1.762-13.05.909.147-.868L34.02.895l.12.333z"/>
        <path fill="#734D60" d="m46.871.868-12.984.894.134-.867L47.004 0zM9.95 51.504 0 51.812l.12-.722 9.884-.334.134.374z"/>
        <path fill="#50A9AA" d="m19.729 51.197-9.778.307.053-.748 9.792-.32.133.28z"/>
        <path fill="#E5C828" d="m29.546 50.89-9.817.307.067-.76 9.83-.336.014.374z"/>
        <path fill="#738D57" d="m40.125 50.555-10.579.335.08-.789 10.62-.347z"/>
        <path d="M15.895 46.95a.383.383 0 0 0-.334.28.202.202 0 0 0 .228.253.383.383 0 0 0 .333-.28.206.206 0 0 0-.227-.253z" fill="#50A9AA"/>
        <path d="M14.987 47.71a.204.204 0 0 0 .227.255.383.383 0 0 0 .334-.281.202.202 0 0 0-.227-.253.372.372 0 0 0-.334.28z" fill="#734D60"/>
        <path d="M16.523 47.657a.368.368 0 0 1-.334.28.212.212 0 0 1-.227-.253.372.372 0 0 1 .334-.28.202.202 0 0 1 .227.253z" fill="#E5C828"/>
        <path d="M15.615 48.433a.214.214 0 0 1-.228-.255.372.372 0 0 1 .335-.28.212.212 0 0 1 .226.253.371.371 0 0 1-.333.282z" fill="#738D57"/>
        <path d="M15.347 46.776a.143.143 0 0 0-.134.107.087.087 0 0 0 .094.106.143.143 0 0 0 .134-.106c.013-.067-.027-.12-.094-.107zM15.749 46.602a.145.145 0 0 0-.134.107.088.088 0 0 0 .093.107.145.145 0 0 0 .134-.107c.014-.067-.026-.107-.093-.107zM16.19 46.588a.145.145 0 0 0-.135.108.088.088 0 0 0 .094.107.145.145 0 0 0 .134-.107.095.095 0 0 0-.094-.108zM16.523 46.722a.145.145 0 0 0-.134.107.088.088 0 0 0 .094.108.145.145 0 0 0 .134-.108c.013-.066-.027-.107-.094-.107z" fill="#50A9AA"/>
        <path d="M15.027 48.433a.143.143 0 0 0-.134.105.088.088 0 0 0 .094.108.145.145 0 0 0 .134-.108.087.087 0 0 0-.094-.105zM15.374 48.579a.143.143 0 0 0-.134.107.088.088 0 0 0 .093.107.143.143 0 0 0 .134-.107.09.09 0 0 0-.093-.107zM15.802 48.565a.145.145 0 0 0-.134.107.088.088 0 0 0 .094.107.142.142 0 0 0 .134-.107.083.083 0 0 0-.094-.107zM16.203 48.395a.145.145 0 0 0-.134.106.088.088 0 0 0 .094.107.145.145 0 0 0 .133-.107c.014-.068-.025-.106-.093-.106z" fill="#738D57"/>
        <path d="M14.798 48.178a.145.145 0 0 0-.134.107.088.088 0 0 0 .094.107.142.142 0 0 0 .134-.107.087.087 0 0 0-.094-.107zM14.798 47.937a.088.088 0 0 0-.094-.106.145.145 0 0 0-.134.106.088.088 0 0 0 .094.107.145.145 0 0 0 .134-.107zM14.747 47.63a.14.14 0 0 0 .134-.107.087.087 0 0 0-.093-.106.143.143 0 0 0-.134.106.103.103 0 0 0 .093.107zM15.013 47.042a.145.145 0 0 0-.134.108.088.088 0 0 0 .094.107.145.145 0 0 0 .134-.107.088.088 0 0 0-.094-.108z" fill="#734D60"/>
        <path d="M16.539 48.111a.145.145 0 0 0-.134.107.088.088 0 0 0 .094.107.145.145 0 0 0 .134-.107.088.088 0 0 0-.094-.107zM16.764 47.75a.145.145 0 0 0-.134.108.088.088 0 0 0 .094.107.145.145 0 0 0 .134-.107.084.084 0 0 0-.094-.107zM16.71 47.444a.088.088 0 0 0 .094.106.145.145 0 0 0 .134-.106.088.088 0 0 0-.092-.107.145.145 0 0 0-.136.107zM16.71 47.19a.145.145 0 0 0 .134-.107.088.088 0 0 0-.094-.108.145.145 0 0 0-.133.108c-.014.067.026.12.093.107z" fill="#E5C828"/>
        <path d="M19.302 47.496a.338.338 0 0 1-.228.08.22.22 0 0 1-.134-.026c-.013-.013-.027-.013-.013-.027v-.013l.013-.014c0-.007.006-.013.014-.013.013 0 .013 0 .026.013a.1.1 0 0 0 .067.014c.046 0 .09-.02.12-.052a.258.258 0 0 0 .068-.12.12.12 0 0 0-.027-.121.178.178 0 0 0-.134-.04.1.1 0 0 0-.067.013c-.013.013-.027.013-.027.04a.526.526 0 0 1-.026.08l-.027.107-.054.28a.368.368 0 0 0-.012.107c0 .027.012.04.039.054a.474.474 0 0 0 .08.013.013.013 0 0 1 .014.014v.013c0 .014-.014.014-.027.027h-.186a.51.51 0 0 0-.12.012.475.475 0 0 0-.094.013c-.014 0-.027 0-.014-.013v-.012c0-.013.027-.027.054-.027a.074.074 0 0 0 .067-.04.623.623 0 0 0 .04-.12l.067-.36a.268.268 0 0 0 .013-.095c0-.04-.013-.066-.067-.066-.027 0-.04-.014-.04-.027v-.027c0-.013.013-.013.027-.013h.173c.045 0 .09-.005.134-.014a.615.615 0 0 1 .133-.013.333.333 0 0 1 .213.053c.05.037.072.102.054.161a.313.313 0 0 1-.12.16zM20.1 48.253a.553.553 0 0 1-.335.095.39.39 0 0 1-.335-.12.399.399 0 0 1-.071-.332.605.605 0 0 1 .215-.377.562.562 0 0 1 .407-.167.375.375 0 0 1 .284.095.29.29 0 0 1 .072.283.083.083 0 0 1-.024.048h-.07l-.55.023c-.023 0-.047 0-.047.024v.048a.213.213 0 0 0 .048.213.218.218 0 0 0 .19.095c.09 0 .176-.033.24-.095l.096-.071h.045v.024c.024.071-.045.119-.165.214zm-.048-.734c-.023-.048-.071-.048-.12-.048a.26.26 0 0 0-.167.071.237.237 0 0 0-.095.164c0 .024 0 .024.024.024h.378c.023 0 .023-.024.023-.047.005-.098.005-.143-.043-.167v.003z" fill="#474747"/>
        <path d="M20.45 47.444c-.04.026-.054.052-.067.052-.014 0-.027 0-.027-.013a.048.048 0 0 1-.012-.025c-.014-.014-.014-.014-.04-.014-.027 0-.067.039-.094.134l-.027.134c0 .027-.013.054 0 .067.018.02.041.033.067.04a.03.03 0 0 1 .027.027v.013c0 .014-.014.014-.04.027h-.188a.371.371 0 0 0-.12.014h-.014c-.013 0-.027 0-.013-.014v-.013c0-.014.013-.014.027-.027a.293.293 0 0 0 .067-.04.114.114 0 0 0 .026-.08l.027-.161a.134.134 0 0 1 .014-.04c0-.027-.014-.054-.04-.054-.027 0-.04 0-.04-.012v-.027c0-.013.013-.013.04-.027h.013a.3.3 0 0 0 .134-.04c.026-.013.04-.027.053-.027h.027v.027l-.013.067.04-.04a.16.16 0 0 1 .119-.054c.027 0 .054 0 .067.027a.102.102 0 0 1 .027.054.166.166 0 0 1-.04.025zM20.825 47.804a.268.268 0 0 1-.175.054.228.228 0 0 1-.093-.013l-.04-.014h-.027c-.014 0-.014 0-.027.014l-.013.013h-.04l-.014-.013a.047.047 0 0 0 .013-.027.05.05 0 0 0 .014-.04l.013-.067c0-.027.014-.027.027-.04h.013c.014 0 .014.013.014.04.002.03.016.06.04.08.03.023.07.032.107.027a.107.107 0 0 0 .12-.08c0-.027 0-.04-.013-.054a.206.206 0 0 0-.094-.04.252.252 0 0 1-.133-.054.104.104 0 0 1-.027-.107.196.196 0 0 1 .08-.12.287.287 0 0 1 .16-.053h.121a.048.048 0 0 0 .04-.013.047.047 0 0 0 .026-.014h.013v.014a.042.042 0 0 1-.013.027c-.013.013-.013.026-.013.053v.067a.028.028 0 0 1-.027.026h-.014c-.012 0-.012-.012-.012-.026a.102.102 0 0 0-.026-.067.19.19 0 0 0-.08-.027c-.054 0-.108.027-.108.067 0 .04 0 .04.027.053.033.02.069.034.107.04.03.011.06.02.092.027a.108.108 0 0 1 .054.12.196.196 0 0 1-.092.147zM21.787 48.102a.772.772 0 0 1-.369.163.33.33 0 0 1-.308-.116.404.404 0 0 1-.082-.348.647.647 0 0 1 .205-.368.769.769 0 0 1 .39-.162.396.396 0 0 1 .308.115c.07.097.1.223.082.346a.61.61 0 0 1-.226.37zm-.062-.6a.205.205 0 0 0-.165-.116.352.352 0 0 0-.183.093.639.639 0 0 0-.082.554c.034.067.096.11.165.116a.346.346 0 0 0 .183-.093.641.641 0 0 0 .082-.554z" fill="#474747"/>
        <path d="M22.413 47.764c0 .014-.013.014-.027.027h-.119a.336.336 0 0 0-.134.013h-.04c-.014 0-.027 0-.014-.013v-.027a.059.059 0 0 1 .04-.013.096.096 0 0 0 .054-.094l.027-.134c.027-.106-.013-.16-.08-.16a.122.122 0 0 0-.094.041.166.166 0 0 0-.054.12l-.026.173a.056.056 0 0 0 .04.08c.026 0 .026.014.026.027v.014c0 .013-.013.013-.026.027h-.146a.228.228 0 0 0-.094.013h-.04c-.014 0-.014 0-.014-.013v-.014c0-.013.014-.013.014-.027a.042.042 0 0 0 .027-.013c.026 0 .04-.027.053-.04a.58.58 0 0 0 .014-.067l.026-.134a.11.11 0 0 0 0-.092c0-.014-.026-.014-.053-.014a.03.03 0 0 1-.027-.027v-.013c0-.013.013-.013.027-.027.013-.013.053-.013.079-.013l.08-.04a.05.05 0 0 1 .04-.014h.014c.013 0 .013.014.013.027l-.013.067c.026-.027.053-.04.067-.054a.305.305 0 0 1 .147-.04.14.14 0 0 1 .134.054.216.216 0 0 1 .013.186l-.026.147c-.014.054-.014.08 0 .094a.134.134 0 0 0 .052.013c.013 0 .013 0 .013.014l.027-.054zM23.339 48.123a.36.36 0 0 1-.227.093c-.046 0-.091 0-.114-.046-.023-.047-.023-.047-.023-.094a.314.314 0 0 0-.09.07.43.43 0 0 1-.228.07.26.26 0 0 1-.159-.046.2.2 0 0 1-.045-.163c.037-.101.1-.19.182-.257.135-.075.28-.129.431-.16v-.047c.023-.14-.022-.187-.159-.187-.068 0-.136.024-.136.07l-.023.047c0 .023-.045.046-.068.046-.023 0-.023 0-.045-.023l-.023-.046v-.047c0-.047.068-.093.204-.14a.944.944 0 0 1 .25-.046.65.65 0 0 1 .202.046c.073.063.1.165.069.256 0 .047-.023.07-.023.094l-.046.207c-.022.093 0 .163.046.14a.083.083 0 0 0 .068-.023c.023 0 .023-.024.045-.024h.023v.047a.27.27 0 0 1-.113.163h.002zm-.293-.42a.672.672 0 0 0-.227.094.308.308 0 0 0-.114.14c-.023.07.023.116.114.116a.317.317 0 0 0 .136-.046.129.129 0 0 0 .068-.117l.023-.186z" fill="#474747"/>
        <path d="M23.361 47.725c0 .027-.012.027-.025.027h-.12c-.068 0-.135.014-.175.014-.013 0-.013 0-.013-.014v-.013a.03.03 0 0 1 .026-.027c.054-.013.08-.027.094-.08l.014-.067.073-.375a.59.59 0 0 0 .014-.12.07.07 0 0 0-.054-.028c-.013 0-.027-.013-.013-.026v-.014c0-.013.013-.013.026-.013h.027a.182.182 0 0 0 .146-.052l.027-.027a.042.042 0 0 1 .027-.014h.027a.013.013 0 0 1 .013.014v.013c-.013.027-.013.04-.027.052-.013.014-.013.08-.04.161l-.079.387a.268.268 0 0 0-.013.094.048.048 0 0 0 .052.054v.053l-.007.001zM24.294 47.915c0 .017-.036.017-.107.034h-.786v-.034c.004-.018.034-.032.072-.034.071-.017.143-.017.178-.05.036-.035.036-.035.072-.086l.071-.17a.249.249 0 0 0 .036-.135c0-.034-.036-.034-.107-.034-.072 0-.072 0-.036-.017v-.017c0-.017 0-.017.036-.034h.107a.41.41 0 0 0 .143-.017c.071-.017.143-.017.178-.034l.107-.034h.108c.035 0 .035.017.035.034v.017c-.035.068-.071.153-.143.254l-.07.17c-.037.068-.037.102 0 .12a.288.288 0 0 0 .142.033c-.036 0-.036 0-.036.034zm-.036-.814a.467.467 0 0 1-.214.034c-.107 0-.143-.017-.143-.068.014-.038.068-.07.143-.085a.493.493 0 0 1 .214-.032c.108 0 .143.015.143.066-.013.039-.067.07-.143.085z" fill="#474747"/>
        <path d="M24.15 47.684a.2.2 0 0 1-.147.053.163.163 0 0 1-.12-.04.102.102 0 0 1-.028-.067c0-.027.005-.054.014-.08l.053-.28c0-.013 0-.013-.013-.013h-.04c-.026 0-.026 0-.026-.027v-.013c0-.014.012-.027.04-.027a.296.296 0 0 0 .173-.134c.014-.014.027-.027.04-.027h.027v.04l-.027.12h.161c.014 0 .014 0 .014.014v.027a.03.03 0 0 1-.027.027h-.148l-.053.253c-.014.067-.014.107 0 .12a.07.07 0 0 0 .053.027.05.05 0 0 0 .04-.013c.014 0 .027-.014.04-.014h.014v.014l-.04.04zM25.096 47.888c0 .017-.036.017-.107.034h-.785v-.034c.003-.018.033-.032.071-.034.072-.017.144-.017.18-.05.035-.034.035-.034.071-.085l.072-.17a.27.27 0 0 0 .032-.136c0-.034-.032-.034-.104-.034s-.072 0-.036-.017v-.017c0-.017 0-.017.036-.034h.104a.413.413 0 0 0 .143-.017c.072-.017.144-.017.18-.034l.107-.034h.108c.036 0 .036.017.036.034v.017c-.036.068-.072.153-.144.255l-.071.17c-.036.068-.036.102 0 .118.035.017.071.034.143.034-.036 0-.036 0-.036.034zm-.036-.813a.47.47 0 0 1-.215.034c-.107 0-.143-.017-.143-.068.013-.038.067-.07.143-.084a.47.47 0 0 1 .215-.034c.108 0 .144.017.144.067a.507.507 0 0 1-.144.085z" fill="#474747"/>
        <path d="M25.36 48.035a.548.548 0 0 1-.331.095.359.359 0 0 1-.328-.112.354.354 0 0 1-.078-.336.615.615 0 0 1 .215-.38.555.555 0 0 1 .403-.165.38.38 0 0 1 .286.095c.073.075.1.183.072.284a.083.083 0 0 1-.024.047H25.5l-.546.024c-.024 0-.048 0-.048.024v.047a.248.248 0 0 0 .239.306.342.342 0 0 0 .238-.095l.095-.07h.048v.023c.024.095-.048.142-.167.213zm-.024-.732c-.023-.048-.071-.048-.119-.048a.258.258 0 0 0-.167.071.237.237 0 0 0-.093.166c0 .024 0 .024.024.024h.38c.023 0 .023-.024.023-.047a.342.342 0 0 0-.048-.166z" fill="#474747"/>
        <path d="M25.592 47.63a.268.268 0 0 1-.174.054.218.218 0 0 1-.092-.013l-.04-.014h-.027c-.013 0-.013 0-.027.014l-.013.013h-.04l-.014-.013a.047.047 0 0 0 .014-.027.05.05 0 0 0 .013-.04l.013-.067c0-.027.014-.027.027-.04h.014c.013 0 .013.013.013.04.002.03.016.06.04.08a.14.14 0 0 0 .106.027.107.107 0 0 0 .12-.08c0-.027 0-.04-.013-.054a.206.206 0 0 0-.094-.04.237.237 0 0 1-.134-.053.104.104 0 0 1-.026-.107.196.196 0 0 1 .08-.12.279.279 0 0 1 .16-.054h.12a.05.05 0 0 0 .04-.013.047.047 0 0 0 .027-.014h.013v.014a.042.042 0 0 1-.013.027c-.014.013-.014.026-.014.053v.067a.03.03 0 0 1-.026.027h-.014c-.013 0-.013-.014-.013-.027a.102.102 0 0 0-.027-.067.19.19 0 0 0-.08-.027c-.054 0-.107.027-.107.067 0 .04 0 .04.026.054.033.02.07.034.108.04.03.012.061.02.093.027a.107.107 0 0 1 .054.119.22.22 0 0 1-.093.147z" fill="#474747"/>
        <path d="M17.766 47.937c0 .028-.014.028-.04.028h-.188l-.107.012h-.106c-.027 0-.027 0-.027-.012v-.015c0-.013.014-.025.04-.025.053 0 .093-.013.106-.04a.293.293 0 0 0 .04-.12l.04-.242c.014-.079.027-.134.027-.146a.03.03 0 0 0-.026-.027.05.05 0 0 0-.04.014l-.027.013a.047.047 0 0 0-.027.014c-.014 0-.014 0-.014-.014v-.013c0-.014.014-.027.04-.027a.903.903 0 0 0 .255-.134c.013-.013.027-.027.04-.027h.014c.007 0 .013.006.013.014v.013c-.03.074-.052.15-.067.228l-.067.36c-.013.067-.013.107 0 .12.013.026.04.026.094.026.013-.025.027-.025.027 0zM18.516 47.987a.66.66 0 0 1-.338.108.412.412 0 0 1-.298-.092.262.262 0 0 1-.057-.247c.047-.16.166-.3.335-.398.135-.092.29-.164.456-.216.057-.02.117-.036.178-.046.02 0 .02 0 .02.015v.016c0 .015-.02.015-.04.015l-.079.016a1.41 1.41 0 0 0-.276.107.676.676 0 0 0-.239.2.75.75 0 0 1 .2-.03.331.331 0 0 1 .257.077.2.2 0 0 1 .058.213.353.353 0 0 1-.177.262zm-.1-.354c-.025-.052-.087-.088-.158-.092-.1 0-.16.061-.199.17a.268.268 0 0 0 .02.215c.04.061.08.092.159.092.08 0 .179-.077.199-.185a.186.186 0 0 0-.02-.2z" fill="#734D60"/>
        <path d="m15.921 12.647.051-.323.24-.016a.383.383 0 0 0 .362-.315c.025-.16-.065-.285-.268-.268l-.437.027-.144.908.2-.013h-.004zm.291-.508-.209.015.039-.245.212-.015c.079 0 .133.038.119.114a.163.163 0 0 1-.158.134l-.003-.003zm1.819.363-.153-.332a.35.35 0 0 0 .25-.284c.026-.169-.074-.284-.269-.268l-.439.03-.145.91.2-.016.05-.322.148-.01.134.31.23-.016-.006-.002zm-.268-.469-.209.015.039-.245.209-.015c.08 0 .134.038.122.114a.166.166 0 0 1-.161.134v-.003zm1.768.366.027-.17-.464.032.032-.205.454-.032.027-.17-.454.03.03-.19.466-.033.026-.17-.67.046-.145.908.67-.046zm1.845-.134.145-.908-.281.019-.315.565-.134-.536-.288.026-.146.91.2-.016.101-.636.167.62h.087l.365-.653-.102.636.201-.015v-.012zm1.072-.073.146-.909-.2.014-.146.908.2-.013zm1.28-.073a.48.48 0 0 0 .484-.41l.087-.543-.204.013-.086.536a.26.26 0 0 1-.253.229c-.146.01-.207-.073-.187-.198l.087-.536-.202.013-.085.552c-.035.224.078.37.363.35l-.004-.006zm2.313-.175.14-.903-.28.019-.315.564-.14-.536-.28.02-.145.908.2-.013.1-.636.163.617h.087l.366-.655-.098.638.2-.014.002-.01zm2.108-.146.051-.323.24-.016a.383.383 0 0 0 .361-.315c.026-.16-.064-.285-.268-.268l-.439.03-.144.908.2-.014v-.002zm.29-.501-.212.015.039-.245.211-.015c.08 0 .134.037.12.112a.165.165 0 0 1-.159.134v-.001zm1.818.361-.155-.33a.35.35 0 0 0 .249-.284c.027-.169-.074-.284-.268-.268l-.44.03-.144.909.2-.015.05-.323.148-.01.134.31.229-.016-.003-.003zm-.268-.468-.209.014.04-.245.208-.014c.08 0 .134.037.122.113a.166.166 0 0 1-.16.134v-.002zm1.546.402a.613.613 0 0 0 .565-.504c.044-.275-.134-.455-.415-.437a.613.613 0 0 0-.564.504c-.044.268.134.455.414.437zm.027-.172c-.173.012-.268-.11-.236-.278a.367.367 0 0 1 .332-.32c.173-.011.268.11.237.28a.371.371 0 0 1-.333.318zm1.48.051.06-.376.454-.031.027-.17-.454.03.03-.191.465-.032.027-.17-.663.045-.146.908.2-.013zm1.49-.103.146-.908-.2.013-.145.91.2-.015zm1.456-.1.027-.17-.402.027.12-.739-.2.015-.146.908.596-.042h.005zm1.473-.102.028-.17-.46.033.033-.206.454-.031.027-.17-.454.03.03-.19.465-.033.027-.17-.663.045-.146.909.66-.047z" fill="#ECECEB"/>
        <path fill="#8F8F8F" fill-rule="nonzero" d="m28.223 25.846.368.058 1.36-.479.223-.517z"/>
        <path fill="#C4C4C4" fill-rule="nonzero" d="m29.257 24.137-1.054.068.016 1.662.372.037 1.583-.996z"/>
        <path fill="#CECECD" fill-rule="nonzero" d="m12.848 43.172 6.562.07 7.574-1.15-7.347.117z"/>
        <path fill="#8F8F8F" fill-rule="nonzero" d="m22.17 26.748-3.101.76.57.424 2.648-.578z"/>
        <path fill="#C4C4C4" fill-rule="nonzero" d="m21.313 25.828-1.608.51-.636 1.17.9.107 1.15-1.105z"/>
        <path fill="#C3987B" fill-rule="nonzero" d="m16.1 35.273-.817.818-.343.343.305.375 1.118-1.342zM14.94 36.434l-.17-.272-.578-.93-.692 1.197.442.937.998-.932z"/>
        <path fill="#C3987B" fill-rule="nonzero" d="m14.806 34.243-.614.99.578.93.17.27.814-.742z"/>
        <path fill="#8B6651" fill-rule="nonzero" d="m16.141 35.233-1.065-1.427-.27.437.948 1.448.347-.418z"/>
        <path fill="#8F8F8F" fill-rule="nonzero" d="m30.146 22.38-1.828.64-.12.73.011 1.086 1.048-.7z"/>
        <path fill="#DDDDDC" fill-rule="nonzero" d="m28.508 21.639-.039.007-.001.018.021 1.345 1.657-.628z"/>
        <path fill="#8F8F8F" fill-rule="nonzero" d="m21.284 24.798-2.231.686.652.854 1.414.172.194-.682z"/>
        <path fill="#DDDDDC" fill-rule="nonzero" d="m21.536 23.302-.438.117-.257-.38-1.788 2.445 2.238-.437z"/>
        <path fill="#54B08B" fill-rule="nonzero" d="m36.775 18.126.188-.154-.303.07-1.12 2.054.43-.299z"/>
        <path fill="#35785D" fill-rule="nonzero" d="m36.963 17.972-.188.154-.806 1.671-.428.299.032.89-.784.606.093.336-.53 1.105-.263-.058-.105.207-.54 1.222.686-.008 1.014-2.5.845-.774.036-1.125z"/>
        <path fill="#54B08B" fill-rule="nonzero" d="m34.353 23.033.529-1.105-.093-.336-.7 1.383z"/>
        <path fill="#C4C4C4" fill-rule="nonzero" d="m28.472 21.61-.003.036.039-.007z"/>
        <path fill="#8F8F8F" fill-rule="nonzero" d="M28.467 21.647v.017l.002-.018z"/>
        <path fill="#8B6651" fill-rule="nonzero" d="m34.594 24.392-1.069 1.846-.885-1.306.422-.6z"/>
        <path fill="#C3987B" fill-rule="nonzero" d="m35.006 22.223.677.11.01.822-.85 1.248-.705-.027z"/>
        <path fill="#DFBDA5" fill-rule="nonzero" d="m33.062 24.332.71-1.428 1.27.283-.209.505-.721-.147-.306.817z"/>
        <path fill="#738D57" fill-rule="nonzero" d="m34.17 26.984-1.108-2.652-.438.151-3.375 4.134 4.852-1.569z"/>
        <path fill="#99C26D" fill-rule="nonzero" d="m28.591 25.904.658 2.713 3.375-4.134z"/>
        <path fill="#5A753D" fill-rule="nonzero" d="m27.917 29.318 3.666.08 2.061-2.446-4.395 1.665-.658-2.713-2.01-.317z"/>
        <path fill="#35785D" fill-rule="nonzero" d="m33.062 24.332-.438.151.143.37.877 2.099-2.161 2.017-.416.418.516.012 2.518-2.35.068-.065z"/>
        <path fill="#738D57" fill-rule="nonzero" d="m16.499 39.895 3.126 2.306 3.13-10.94-1.53.487z"/>
        <path fill="#738D57" fill-rule="nonzero" d="m21.214 28.937-.162-.1-1.413-.905 1.082 2.606.966-.921 1.069 1.645 1.4-.527z"/>
        <path fill="#446125" fill-rule="nonzero" d="m20.721 30.538.504 1.21 1.53-.486-1.068-1.645z"/>
        <path fill="#3F8F6F" fill-rule="nonzero" d="m21.5 42.508 1.773-.92.225-.488-1.949 1.104z"/>
        <path fill="#35785D" fill-rule="nonzero" d="m21.7 41.288-.15.916 1.948-1.104.308-.668z"/>
        <path fill="#738D57" fill-rule="nonzero" d="m27.005 29.663.912-.345-.292-.822z"/>
        <path fill="#54B08B" fill-rule="nonzero" d="m24.155 30.735.102.062-.102-.062zM24.155 30.735l-2.94-1.798z"/>
        <path fill="#35785D" fill-rule="nonzero" d="m27.315 28.53-.624 1.174-.057.098.371-.14.62-1.166-.11-.316z"/>
        <path fill="#35785D" fill-rule="nonzero" d="m26.634 29.802-1.285 2.206-.845-1.404-2.936-1.81-.324-.2-1.161-.744-.22-.133-.224.215 1.413.904.162.1 2.941 1.8.102.06 1.064 1.769 1.621-2.783.063-.12z"/>
        <path fill="#54B08B" fill-rule="nonzero" d="m24.284 26.815.007.875-2.723 1.103 2.922 1.787.014.024 2.13-.802.057-.098.624-1.173.2-.351-1.01-2.849z"/>
        <path fill="#72C9A6" fill-rule="nonzero" d="m21.244 28.594.324.2 2.723-1.104-3.172-1.18-1.256 1.207.22.133z"/>
        <path fill="#35785D" fill-rule="nonzero" d="m26.508 25.34-.002-.009-.015.011zM27.315 28.53l.2-.35-.12-.336-.46.554-.905 1.631-1.367.515-.048-.082-4.646-2.847-.106.102-.224.215 1.413.904.162.1 2.941 1.8.102.06 1.064 1.769 1.621-2.783.063-.12-.37.14.056-.098zM24.284 26.815l-2.97-.987-.195.682 3.172 1.18z"/>
        <path fill="#DFBDA5" fill-rule="nonzero" d="m28.515 24.976-.08-6.25-1.687-.904-1.149 1.093-2.546-.407-.07.104.555.954.162 6.938 2.334-.744z"/>
        <path fill="#ECECEB" fill-rule="nonzero" d="m26.748 17.822 1.688.904-.872-1.36-.868-.199z"/>
        <path fill="#DDDDDC" fill-rule="nonzero" d="m26.696 17.167-1.783-.41.69 2.154 1.145-1.09z"/>
        <path fill="#C4C4C4" fill-rule="nonzero" d="m22.768 18.33.258.218.027-.04 2.546.407.004-.004-.69-2.154z"/>
        <path fill="#8F8F8F" fill-rule="nonzero" d="m20.656 19.896.45 2.74.308-.121.562.308.539-2.215-.647-.36 1.185-1.74-.143-.283z"/>
        <path fill="#5A753D" fill-rule="nonzero" d="m25.15 19.934.046.254-1.075.745-.075-.297zM26.597 19.61l.055.304.912.09.024-.144z"/>
        <path fill="#C3987B" fill-rule="nonzero" d="m24.12 20.933 1.99 1.567-.053-1.36-.46-.775.77-.177.43.792.05.783.717-1.758-.912-.091-1.456.274z"/>
        <path fill="#E8CAB6" fill-rule="nonzero" d="m26.3 19.977.491.93.134 2.043-.79.213-.078-2.022-.597-1.003z"/>
        <path d="M27.455 20.95c.011.201-.075.4-.192.441-.118.04-.224-.091-.236-.295-.012-.203.075-.401.193-.442.117-.04.223.092.235.295zM25.215 21.564c0 .217-.114.434-.268.483-.154.05-.268-.085-.276-.302-.008-.217.114-.433.268-.484.154-.05.272.08.276.303z" fill="#000" fill-rule="nonzero"/>
        <path fill="#C3987B" fill-rule="nonzero" d="m23.538 19.566-.485-1.058-1.185 1.74.647.36-.539 2.215-.562-.308-.308.12-.642.257.268 1.377.533-.158.694-.217-.675.904.03 1.03 2.044.68.343-.061z"/>
        <path fill="#8B6651" fill-rule="nonzero" d="m21.265 24.111.026.936.668-1.153zM24.431 26.838l.006-.544-.736.153-.343.061 1.034.343z"/>
        <path fill="#8F8F8F" fill-rule="nonzero" d="m26.925 22.95-.79.213.49.209z"/>
        <path fill="#8B6651" fill-rule="nonzero" d="m20.84 23.04.797.301-.133-.541z"/>
        <path fill="#99C26D" fill-rule="nonzero" d="m19.64 27.932-3.69 4.084 3.768-1.095 1.496-1.984z"/>
        <path fill="#35785D" fill-rule="nonzero" d="m15.754 35.69 1.986-.732.45-.593-2.133.746-.93-2.183-.399.442z"/>
        <path fill="#738D57" fill-rule="nonzero" d="m15.95 32.016-.823.912.93 2.183.628-.22 3.015-3.964z"/>
        <path fill="#5A753D" fill-rule="nonzero" d="m21.214 28.937-4.53 5.954 1.506-.526 3.764-4.977z"/>
        <path fill="#72C9A6" fill-rule="nonzero" d="m24.146 42.242-.873-.654-.907.47-.05.304z"/>
        <path fill="#738D57" fill-rule="nonzero" d="m19.765 41.712-.14.489.012.008 5.94-1.91 2.34-10.98-8.152 12.393z"/>
        <path fill="#99C26D" fill-rule="nonzero" d="m26.942 29.782-1.621 2.783-1.064-1.768-.102-.062-1.4.527-2.99 10.45 8.152-12.394-.912.345z"/>
        <path fill="#35785D" fill-rule="nonzero" d="m25.208 40-5.443 1.712-2.705-1.997-.315-.245-.246.425 3.126 2.306.012.008 5.94-1.91.101-.475z"/>
        <path fill="#C4C4C4" fill-rule="nonzero" d="m26.135 23.163-1.87 1.535.075 5.595 1.678 1.53-.001.379-.344.531.848.824.104-10.185z"/>
        <path fill="#ECECEB" fill-rule="nonzero" d="m26.99 31.602 1.264-2.274-.055-5.578-1.274-.8-.3.422-.104 10.185.721-1.075-.328-.42z"/>
        <path fill="#446125" fill-rule="nonzero" d="m27.033 32.054-1.129.236.003-.477 1.13-.235z"/>
        <path fill="#5A753D" fill-rule="nonzero" d="m27.222 23.94-1.585.483.037-.234 1.587-.484z"/>
        <path fill="#54B08B" fill-rule="nonzero" d="m24.35 42.229-1.077-.642-.907.47-.27.14-.596.31.55-.018 2.316-.08zM17.208 42.633l-1.074-.046-.088.534 1.36-.088z"/>
        <path fill="#3F8F6F" fill-rule="nonzero" d="m16.134 42.587 1.074.046 1.13-1.17-1.025-.567z"/>
        <path fill="#35785D" fill-rule="nonzero" d="m17.263 40.458-1.553 2.308.336.355.088-.534 1.179-1.69 1.026.566.119-.123z"/>
        <path d="m12.12 9.658-1.923.134-.401.767-1.006.07 2.424-4.46 1.148-.08.897 4.228-1 .07-.14-.73zm-1.537-.685 1.425-.099-.367-1.943-1.058 2.042zM14.412 5.94l1.697-.118c1.349-.094 2.132.707 1.903 2.016-.229 1.308-1.315 2.24-2.664 2.334l-1.695.12.76-4.352zm1.08 3.412a1.741 1.741 0 0 0 1.583-1.444c.133-.768-.225-1.328-1.11-1.266l-.78.054-.476 2.716.783-.06zM18.457 5.664 19.5 5.59l.608 3.259 1.772-3.425 1.046-.072-2.419 4.46-1.147.08zM25.244 5.119c1.303-.091 2.087.78 1.858 2.089a2.928 2.928 0 0 1-2.645 2.41c-1.297.09-2.08-.781-1.851-2.09a2.924 2.924 0 0 1 2.638-2.41zm-.134.82c-.794.056-1.41.704-1.553 1.518-.144.814.26 1.39 1.054 1.34.794-.051 1.411-.714 1.553-1.518.142-.804-.266-1.396-1.054-1.34zM27.544 7.179a2.946 2.946 0 0 1 2.652-2.411c.98-.068 1.437.414 1.646.937l-.856.446c-.12-.338-.457-.592-.938-.558-.747.052-1.42.698-1.565 1.517-.145.82.318 1.388 1.071 1.34a1.563 1.563 0 0 0 1.156-.705l.72.33c-.401.56-1.039 1.127-2.02 1.196-1.26.084-2.1-.757-1.866-2.092zM34.629 8.083l-1.922.134-.402.767-1.006.07L33.723 4.6l1.148-.08.897 4.232-.999.07-.14-.74zM33.092 7.4l1.425-.1-.36-1.944L33.092 7.4zM37.367 5.147l-1.259.088.144-.814 3.431-.24-.142.821-1.252.087-.618 3.53-.922.065zM40.27 4.14l3.044-.21-.134.795-2.132.143-.165.938 2.081-.134-.134.794-2.088.143-.176 1.01 2.128-.148-.14.803-3.045.21z" fill="#FFF" fill-rule="nonzero"/>
    </g>
</svg>
