<svg width="140" height="130" viewBox="0 0 140 130" xmlns="http://www.w3.org/2000/svg">
    <g fill="none" fill-rule="evenodd">
        <path d="M78.4 0 14 37.556 0 99.666 68.6 130l71.4-21.667-7-70.777z" fill="#F6F6F7"/>
        <path d="m71.154 72.878-1.136-.114-1.089-.965.483-1.551 1.261-.338 1.086 1.32-.605 1.648zm-3.53-14.049h-1.016l-.89-1.021.89-1.373 1.009.943.55.799-.543.652zm15.349 7.73-6.856-1.882L71.34 60.5l-.667-1.917.475-.276 5.562.222 4.63 3.785 1.35-2.598 3.112-1.538-1.323-2.396.454-5.224-7.575-1.306-1.897-2.139-2.324-5.518-2.464.534-2.324-1.949.58 2.975-.761 1.343-1.869.328-1.723-1.671-5.527 10.518-4.271 4.505 3.806 4.608.44 3.12 2.558.014 3.07 2.338.298 2.032-1.016 1.167-6.042-.25-2.46-3.56 1.171 6.024-1.28 3.229 3.422 2.667.932 2.665 2.846-.829 3.815.83.416.98-.872 1.525 1.226 1.574.19 3.108 3.375-1.49 3.715.51-.34-3.05 1.413-2.176 3.407-6.314 6.065-5.442-1.96-1.601v-3.298z" fill="#1C7678"/>
        <path fill="#446125" d="m54.778 58.177 4.246 7.728 15.024 6.282-.293-2.51-2.655-2.03-2.622-1.167-3.006-1.822-2.895-2.78z"/>
        <path fill="#5A753D" d="m65.447 64.708-1.85 8.247 4.244 1.224zM82.973 66.558l1.96 4.899-9.472 11.755-4.788-2.431 3.715-8.257z"/>
        <path fill="#608449" d="m70.184 80.932.49-.151 4.787 2.431-1.073 5.227-2.21-1.318-.925-1.731z"/>
        <path fill="#446125" d="m71.252 85.39 1.347 1.309 1.79 1.74-7.092.98-1.415-4.681 2.737-.477zM55.323 76.899l4.354 5.333h8.164l-1.087-2.285-3.907-1.729z"/>
        <path fill="#5A753D" d="m84.933 50.557.87 7.62-4.463 4.136-.638-2.976.311-1.45 1.255-3.52z"/>
        <path fill="#446125" d="m81.34 62.313-12.736-5.007-5.006.87-2.016-2.612 6.259-6.314 13.172 4.572v4.355z"/>
        <path fill="#5A753D" d="m70.673 52.88.788 8.997L68.93 60.3zM73.138 41.594l2.323 3.193v3.919l-3.702-2.94V43.96z"/>
        <path d="m70.018 72.764-1.522-6.314 5.259 3.228-1.996 2.283-1.74.803zm-7.546-16.728 5.116-4.209.037 7.002-5.153-2.793zm7.546 3.774.655-6.93 10.34 5.007 3.92-7.33-13.174-4.79 1.379-4.173-4.789-1.415-.18 4.318-1.56-.05-2.032-1.293-3.611 7.038-6.188 7.985 10.669 6.53 1.161 7.946-3.438-.466-7.737-4.54.454 6.023-.564 3.229 11.43 3.048-.87 4.79 5.37.653-.58-4.609 12.3-14.223-12.955-6.748z" fill="#709D53"/>
        <path fill="#99C26D" d="m68.168 44.498-.58 7.33-5.116 4.208-7.694 2.141 9.799-15.023zM82.973 66.558l-9.218 3.12-3.737 3.085-3.264 7.184 3.92.834zM70.018 59.81l-1.522 6.64-3.049-1.743 2.178-5.877zM66.608 72.653 55.324 76.9l.109-9.253z"/>
        <path fill="#3F8F6F" d="M69.98 25.23 53.563 36.045l-16.416 8.14v10.731h8.487v-5.832l10.003-7.412L69.98 35.03l14.468 6.644 9.877 7.412v7.432h8.487V44.185l-15.543-8.14z"/>
        <path fill="#3F8F6F" d="m30.08 54.872 11.313 11.312 11.312-11.312z"/>
        <path fill="#54B08B" d="M69.98 25.23v9.799l24.345 14.056 8.487-4.9z"/>
        <path fill="#72C9A6" d="M69.98 25.23 37.147 44.184l8.487 4.9L69.98 35.029z"/>
        <path fill="#54B08B" d="M37.181 73.48v12.333l15.543 8.139 17.29 10.816L86.43 93.952l16.416-8.14V75.08h-8.487v5.833l-10.003 7.411-14.343 6.644-14.469-6.644-9.876-7.411V73.48z"/>
        <path fill="#54B08B" d="M87.288 75.126h22.624L98.6 63.813z"/>
        <path fill="#3F8F6F" d="m37.181 85.813 32.832 18.955v-9.8L45.668 80.913z"/>
        <path fill="#35785D" d="M70.013 94.969v9.799l32.833-18.955-8.487-4.9z"/>
    </g>
</svg>
