<svg width="260" height="54" viewBox="0 0 260 54" xmlns="http://www.w3.org/2000/svg">
    <g fill="none" fill-rule="evenodd">
        <path d="M26.625 8.706a6.483 6.483 0 1 0 0 12.966 6.483 6.483 0 0 0 0-12.966" fill="#4298B4"/>
        <path d="M8.706 26.546a6.483 6.483 0 1 0 12.965-.001 6.483 6.483 0 0 0-12.965 0" fill="#88619A"/>
        <path d="M44.495 26.546a6.483 6.483 0 1 1-12.965-.001 6.483 6.483 0 0 1 12.965 0" fill="#E4AE3A"/>
        <path d="M26.625 44.496a6.483 6.483 0 1 1 0-12.966 6.483 6.483 0 0 1 0 12.966" fill="#33A474"/>
        <path d="M12.846 3.761a2.605 2.605 0 0 0-2.601 2.602 2.605 2.605 0 0 0 2.601 2.602 2.605 2.605 0 0 0 2.602-2.602 2.605 2.605 0 0 0-2.602-2.602M21.55 0a2.605 2.605 0 0 0-2.601 2.602 2.605 2.605 0 0 0 2.601 2.602 2.605 2.605 0 0 0 2.602-2.602A2.605 2.605 0 0 0 21.55 0M31.664 0a2.605 2.605 0 0 0-2.602 2.602 2.605 2.605 0 0 0 2.602 2.602 2.605 2.605 0 0 0 2.601-2.602A2.605 2.605 0 0 0 31.664 0M40.355 3.761a2.605 2.605 0 0 0-2.602 2.602 2.605 2.605 0 0 0 2.602 2.602 2.605 2.605 0 0 0 2.601-2.602 2.605 2.605 0 0 0-2.601-2.602" fill="#4298B4" fill-rule="nonzero"/>
        <path d="M12.846 44.237a2.605 2.605 0 0 0-2.601 2.602 2.605 2.605 0 0 0 2.601 2.602 2.605 2.605 0 0 0 2.602-2.602 2.604 2.604 0 0 0-2.602-2.602M21.55 47.998A2.605 2.605 0 0 0 18.95 50.6a2.605 2.605 0 0 0 2.601 2.603 2.605 2.605 0 0 0 2.602-2.603 2.605 2.605 0 0 0-2.602-2.602M31.664 47.998a2.605 2.605 0 0 0-2.602 2.602 2.605 2.605 0 0 0 2.602 2.603 2.605 2.605 0 0 0 2.601-2.603 2.605 2.605 0 0 0-2.601-2.602M40.355 44.237a2.605 2.605 0 0 0-2.602 2.602 2.605 2.605 0 0 0 2.602 2.602 2.605 2.605 0 0 0 2.601-2.602 2.604 2.604 0 0 0-2.601-2.602" fill="#33A474" fill-rule="nonzero"/>
        <path d="M6.364 37.754a2.605 2.605 0 0 0-2.602 2.601 2.605 2.605 0 0 0 2.602 2.603 2.605 2.605 0 0 0 2.601-2.603 2.605 2.605 0 0 0-2.601-2.601M5.204 31.651a2.605 2.605 0 0 0-2.602-2.601A2.605 2.605 0 0 0 0 31.65a2.605 2.605 0 0 0 2.602 2.603 2.606 2.606 0 0 0 2.602-2.603M2.602 24.14a2.605 2.605 0 0 0 2.601-2.602 2.605 2.605 0 0 0-2.601-2.602A2.605 2.605 0 0 0 0 21.538a2.605 2.605 0 0 0 2.602 2.602M6.364 10.245a2.605 2.605 0 0 0-2.602 2.602 2.605 2.605 0 0 0 2.602 2.602 2.605 2.605 0 0 0 2.601-2.602 2.605 2.605 0 0 0-2.601-2.602" fill="#88619A" fill-rule="nonzero"/>
        <path d="M46.838 37.754a2.605 2.605 0 0 0-2.602 2.601 2.605 2.605 0 0 0 2.602 2.603 2.605 2.605 0 0 0 2.601-2.603 2.604 2.604 0 0 0-2.601-2.601M50.6 29.05a2.605 2.605 0 0 0-2.602 2.601 2.605 2.605 0 0 0 2.602 2.603A2.605 2.605 0 0 0 53.2 31.65 2.605 2.605 0 0 0 50.6 29.05M47.997 21.538A2.605 2.605 0 0 0 50.6 24.14a2.605 2.605 0 0 0 2.602-2.602 2.605 2.605 0 0 0-2.602-2.601 2.604 2.604 0 0 0-2.602 2.601M46.838 15.449a2.605 2.605 0 0 0 2.601-2.602 2.605 2.605 0 0 0-2.601-2.602 2.605 2.605 0 0 0-2.602 2.602 2.605 2.605 0 0 0 2.602 2.602" fill="#E4AE3A" fill-rule="nonzero"/>
        <g fill-rule="nonzero">
            <path d="M220.182 18.604c.148 0 .265.03.324.058.116.059.176.351.176.849v2.807h2.35c.147 0 .382 0 .647-.058.323-.029.529-.058.675-.058.206 0 .294.146.294.38v.673c0 .41-.059.585-.5.585-.116 0-.206 0-.263-.03-.09 0-.589-.029-.882-.029h-2.321v6.29c0 1.492.116 2.428.381 2.808.265.41.705.615 1.263.615.235 0 .53-.088.882-.205l.299-.092c.225-.068.39-.112.495-.112.116 0 .206.03.265.057.03.03.087.06.147.118l.116.146a.44.44 0 0 1 .118.322c0 .175-.088.35-.294.555-.822.878-1.909 1.318-3.203 1.318-1.204 0-2.203-.381-3.026-1.142-.47-.44-.764-.994-.912-1.668-.087-.38-.116-1.053-.116-1.96v-6.669c0-.263-.176-.38-.528-.38h-1.03c-.47 0-.705-.176-.705-.527v-.205c0-.263.235-.497.706-.644 1.616-.555 2.821-1.58 3.613-3.1.236-.468.53-.702.852-.702h.177zm-62.376 3.334c2.057 0 3.732.644 5.083 1.902 1.322 1.287 1.998 2.895 1.998 4.885 0 1.99-.704 3.627-2.173 4.915-1.41 1.316-3.233 1.96-5.408 1.96-2.085 0-3.82-.615-5.172-1.872-1.38-1.288-2.055-2.867-2.055-4.798 0-2.048.733-3.715 2.173-5.032 1.44-1.316 3.291-1.96 5.554-1.96zm32.88 0c1.087 0 2.057.264 2.85.82 1.027.702 1.528 1.93 1.528 3.686 0 .526-.03.994-.03 1.433l-.117 2.955c0 1.404.352 2.135 1.028 2.135.264 0 .587-.118.97-.322.206-.117.353-.175.47-.175.059 0 .176.058.265.146l.146.233c.089.118.117.205.117.235-.001.263-.383.731-1.147 1.317-.999.79-1.939 1.169-2.762 1.169-.645 0-1.146-.205-1.527-.614-.236-.205-.47-.616-.676-1.2-.412.351-.822.644-1.233.907-.942.615-1.94.936-2.968.936-1 0-1.793-.292-2.44-.847-.645-.586-.969-1.288-.969-2.166 0-1.258.675-2.37 1.998-3.334 1.322-.966 3.144-1.638 5.406-2.048v-.76c0-1.785-.88-2.692-2.673-2.692-1.088 0-1.676.322-1.763.995l-.088.702c-.058.468-.353.702-.881.702-.265 0-.5-.176-.676-.497l-.323-.586c-.118-.233-.176-.38-.176-.555 0-.556.822-1.2 2.497-1.902 1.058-.438 2.115-.672 3.173-.672zm67.72-.119c.118 0 .206.03.265.147l.117.146c.089.117.146.234.146.322s-.057.293-.146.556c-.117.322-.177.732-.177 1.228 0 .06.03.263.03.586 0 .321.03.584.03.848v.117c0 .468-.206.702-.588.702l-.324.03c-.206 0-.352-.264-.441-.79-.088-.673-.47-1.23-1.086-1.668-.588-.468-1.294-.702-2.088-.702-1.35 0-2.29.673-2.29 1.609 0 .497.235.936.704 1.229.47.292 1.41.643 2.792.994 1.058.293 1.851.585 2.321.848 1.176.703 1.764 1.727 1.764 3.101 0 1.29-.5 2.342-1.5 3.19-.998.848-2.232 1.258-3.731 1.258-.704 0-1.44-.088-2.204-.264l-1.029-.233c-.176-.03-.323-.06-.528-.06a.822.822 0 0 0-.47.147l-.294.234c-.117.088-.235.146-.352.146a.48.48 0 0 1-.265-.088l-.206-.147c-.146-.116-.236-.233-.236-.408 0-.147.09-.41.206-.79.118-.323.176-.674.148-.995l-.118-1.697c0-.497.206-.79.588-.877l.235-.059c-.03 0 .03-.029.147-.029.294 0 .5.32.558.994.089.76.47 1.375 1.175 1.873.706.526 1.558.76 2.529.76 1.644 0 2.467-.585 2.467-1.697 0-.526-.206-.936-.588-1.258-.382-.291-1.175-.614-2.351-.936-1.527-.438-2.615-.907-3.26-1.433-.854-.673-1.265-1.58-1.265-2.691 0-1.23.411-2.224 1.292-2.984.882-.76 2.028-1.141 3.41-1.141.294 0 .705.029 1.263.117l1.234.175c.265.059.441.059.441.059.265 0 .617-.059.97-.234.353-.147.617-.235.705-.235zm-17.128.149c1.674 0 3.055.497 4.142 1.55 1.06 1.024 1.617 2.34 1.617 3.92 0 .41-.089.673-.324.76-.116.06-.44.089-.97.089h-7.11c-.352 0-.558.116-.618.32-.058.117-.058.293-.058.498 0 1.142.411 2.135 1.233 3.013.823.848 1.764 1.288 2.88 1.288 1.087 0 2.058-.352 2.939-1.054l1.058-.848c.116-.058.206-.117.322-.117.117 0 .206.06.294.117l.176.117h.03a.513.513 0 0 1 .176.38c0 .556-.705 1.317-2.116 2.312-1.204.847-2.556 1.257-4.083 1.257-1.88 0-3.41-.585-4.614-1.784-1.174-1.2-1.793-2.75-1.793-4.593 0-2.02.677-3.744 1.97-5.12 1.323-1.403 2.938-2.105 4.849-2.105zm-123.166 0c1.675 0 3.056.497 4.143 1.55 1.059 1.024 1.616 2.34 1.616 3.92 0 .41-.088.673-.323.76-.117.06-.44.089-.97.089h-7.11c-.352 0-.558.116-.618.32-.058.117-.058.293-.058.498 0 1.142.411 2.135 1.234 3.013.823.848 1.764 1.288 2.88 1.288 1.087 0 2.057-.352 2.938-1.054l1.058-.848c.117-.058.206-.117.323-.117.117 0 .206.06.294.117l.176.117h.03a.513.513 0 0 1 .176.38c0 .556-.705 1.317-2.116 2.312-1.205.847-2.556 1.257-4.084 1.257-1.88 0-3.409-.585-4.613-1.784-1.175-1.2-1.793-2.75-1.793-4.593 0-2.02.676-3.744 1.969-5.12 1.323-1.403 2.938-2.105 4.848-2.105zm29-.149c.118 0 .206.03.265.147l.117.146c.09.117.147.234.147.322s-.058.293-.147.556c-.117.322-.176.732-.176 1.228 0 .06.03.263.03.586 0 .321.03.584.03.848v.117c0 .468-.207.702-.588.702l-.324.03c-.206 0-.353-.264-.442-.79-.087-.673-.469-1.23-1.086-1.668-.588-.468-1.294-.702-2.087-.702-1.351 0-2.291.673-2.291 1.609 0 .497.236.936.704 1.229.471.292 1.41.643 2.792.994 1.058.293 1.851.585 2.322.848 1.175.703 1.763 1.727 1.763 3.101 0 1.29-.5 2.342-1.5 3.19-.998.848-2.232 1.258-3.731 1.258-.705 0-1.44-.088-2.205-.264l-1.028-.233c-.176-.03-.323-.06-.528-.06a.824.824 0 0 0-.47.147l-.294.234c-.117.088-.235.146-.352.146a.48.48 0 0 1-.265-.088l-.206-.147c-.147-.116-.235-.233-.235-.408 0-.147.088-.41.206-.79a2.35 2.35 0 0 0 .147-.995l-.118-1.697c0-.497.206-.79.588-.877l.235-.059c-.029 0 .03-.029.147-.029.293 0 .5.32.558.994.088.76.47 1.375 1.175 1.873.706.526 1.558.76 2.528.76 1.645 0 2.468-.585 2.468-1.697 0-.526-.207-.936-.588-1.258-.382-.291-1.175-.614-2.351-.936-1.527-.438-2.615-.907-3.261-1.433-.853-.673-1.264-1.58-1.264-2.691 0-1.23.411-2.224 1.293-2.984.881-.76 2.027-1.141 3.408-1.141.295 0 .706.029 1.264.117l1.234.175c.265.059.441.059.441.059.265 0 .617-.059.97-.234.353-.147.617-.235.705-.235zm-16.485.207c.088 0 .145 0 .176.03.117.058.176.116.176.175 0 .059.03.175.03.41v1.667c.264-.322.558-.644.822-.936.822-.907 1.675-1.346 2.557-1.346.617 0 1.146.205 1.616.585.5.38.734.848.734 1.346.002.35-.175.76-.556 1.2-.647.731-1.148 1.111-1.5 1.111-.264 0-.53-.176-.763-.497-.118-.146-.266-.351-.412-.527a1.121 1.121 0 0 0-.881-.38c-1 0-1.5 1.025-1.5 3.1v3.249c0 .79.088 1.344.294 1.667.265.439.882.76 1.88.907.47.088.706.293.676.615l-.03.35c-.029.322-.264.468-.705.468h-.235l-1.293-.088c-.588-.03-1.528-.059-2.85-.059-1.028 0-1.94.06-2.762.146h-.235c-.323 0-.5-.146-.5-.467V34.4c0-.264.177-.469.5-.527.705-.175 1.175-.44 1.41-.761.235-.351.353-.965.353-1.814v-3.861c0-.468 0-.849-.03-1.053-.059-.79-.44-1.23-1.145-1.317-.618-.088-.97-.176-1.058-.263-.06-.058-.088-.176-.088-.38v-.293c0-.41.206-.468.734-.468h.353c.97 0 1.91-.322 2.79-.994.56-.44.971-.644 1.205-.644h.237zm-26.499-6.523c2.144 0 3.85.527 5.142 1.55 1.293 1.024 1.94 2.37 1.94 4.066-.001 1.668-.647 3.042-2 4.183-1.321 1.112-2.938 1.668-4.906 1.668-1.205 0-2.234-.235-3.115-.702-.382-.205-.558-.41-.558-.644 0-.087.03-.205.088-.322l.176-.38c.03-.146.118-.205.265-.205.176 0 .382.059.676.235.47.262.999.38 1.616.38 1.028 0 1.88-.38 2.497-1.112.618-.731.94-1.726.94-2.925 0-1.287-.41-2.311-1.204-3.1-.794-.762-1.851-1.142-3.203-1.142-.705 0-1.204.088-1.499.293-.264.175-.44.439-.528.79-.088.35-.147 1.023-.147 2.047l-.03 2.662v6.7c0 1.11.06 1.988.177 2.661.117.615.47 1.082 1.087 1.317.294.088.881.205 1.792.35.323.03.47.205.47.498v.38c0 .38-.088.468-.5.468l-1.645-.088a67.679 67.679 0 0 0-2.732-.058c-.647 0-1.558.03-2.703.058a60.365 60.365 0 0 1-2.093.088h-.17c-.353 0-.529-.117-.529-.38v-.381c0-.35.382-.556 1.146-.643.675-.06 1.117-.351 1.352-.878.234-.526.352-1.492.352-2.866v-9.41c-.002-.635-.013-1.15-.058-1.56-.09-1.083-.677-1.697-1.823-1.814-.675-.058-.998-.292-.998-.643v-.527c0-.263.235-.41.675-.41.47 0 .941 0 1.44.06 1 .058 1.793.116 2.38.116.382 0 1.44-.088 3.174-.205 1.469-.117 2.497-.175 3.056-.175zm98.98-.878c.034.005.12.017.268.059l.293.058c.206.059.324.176.324.352 0 .058 0 .204-.06.409-.088.497-.175.965-.205 1.433-.056.66-.085 1.892-.089 3.668v9.847c0 .936.059 1.667.148 2.165.146.76.617 1.17 1.38 1.228.47.059.705.205.705.469v.292h.001c0 .526-.176.586-.588.586-.41 0-.675-.03-.88-.03a19.896 19.896 0 0 0-2.028-.088c-1.676 0-3.115.117-4.026.117-.323 0-.469-.088-.469-.293v-.351c0-.35.206-.585.645-.643 1.204-.175 1.646-.672 1.676-1.99l.03-1.579v-9.039c0-1.55-.119-2.516-.325-2.867-.233-.38-.734-.585-1.468-.614-.382 0-.558-.234-.558-.643v-.205c0-.293.176-.44.529-.44h.175c.06.03.176.03.323.03 1.41 0 2.439-.351 3.116-1.053l.498-.527c.202-.2.36-.315.512-.343l.073-.008zm-31.611 7.342.265.03c.176 0 .265.205.265.585v1.608c.499-.584.97-1.023 1.41-1.286.998-.614 2.057-.937 3.202-.937 1.44 0 2.587.498 3.44 1.521.822.966 1.234 2.457 1.234 4.418v3.393c0 1.2.176 1.93.528 2.194.176.146.617.292 1.322.439.295.059.441.176.441.351v.438h-.001c0 .322-.176.469-.528.469.058 0-.382-.03-1.38-.088-.325 0-.853-.03-1.53-.03-1.527 0-2.556.03-3.055.088-.176 0-.442.029-.794.029-.322 0-.5-.146-.5-.468v-.32c0-.147.03-.235.09-.293.059-.03.381-.176.97-.38.645-.235.969-1.024.969-2.311V28.14c0-2.72-.91-4.067-2.703-4.067-.853 0-1.557.322-2.145.966-.587.644-.882 1.55-.882 2.75v4.066c0 1.111.382 1.755 1.146 1.93.56.118.822.293.822.527v.41c0 .321-.205.468-.617.468-.382 0-.704-.03-.998-.03a37.174 37.174 0 0 0-2.586-.087c-.735 0-1.44.03-2.145.088-.236 0-.558.029-.97.029-.265 0-.381-.117-.381-.352v-.35c0-.264.088-.468.322-.557.06-.028.323-.088.706-.146.588-.087.97-.467 1.116-1.082.089-.263.118-.848.118-1.726v-3.188c0-.994-.118-1.726-.382-2.194-.148-.264-.56-.44-1.264-.498-.412-.03-.617-.233-.617-.555v-.264c0-.38.146-.467.676-.467.558 0 1.175-.147 1.85-.41a5.555 5.555 0 0 0 1.705-.995c.323-.292.588-.439.764-.439h.117zm59.145.058.264.088c.177.058.266.234.266.527v.262c-.177 1.2-.266 2.78-.236 4.798l.03 3.188c0 1.17.116 1.931.322 2.253.206.322.646.585 1.351.732.441.087.647.263.647.527v.322c0 .321-.293.468-.852.468-.382 0-.705-.03-.91-.03-.648-.058-1.529-.087-2.616-.087-.5 0-1.146.03-1.94.058l-1.234.059c-.116 0-.206-.03-.263-.03-.119-.03-.149-.146-.149-.322v-.322c0-.32.206-.526.648-.614.675-.146 1.116-.409 1.321-.76.148-.264.236-.761.236-1.492l.03-3.336c0-1.198-.09-2.076-.266-2.574-.176-.555-.587-.819-1.175-.819l-.116.03h-.119c-.499 0-.558-.06-.558-.498v-.292c0-.264.06-.439.148-.497.117-.06.41-.088.881-.088.44-.03.852-.117 1.264-.264.587-.205 1.057-.38 1.41-.585l.97-.643a.443.443 0 0 1 .323-.117s.117 0 .323.058zm-18.657 0 .265.088c.176.058.265.234.265.527v.262c-.176 1.2-.265 2.78-.236 4.798l.03 3.188c0 1.17.117 1.931.322 2.253.207.322.647.585 1.352.732.44.087.647.263.647.527v.322c0 .321-.294.468-.853.468-.382 0-.706-.03-.91-.03-.648-.058-1.529-.087-2.617-.087-.498 0-1.145.03-1.939.058l-1.234.059c-.116 0-.206-.03-.263-.03-.119-.03-.149-.146-.149-.322v-.322c0-.32.206-.526.648-.614.675-.146 1.116-.409 1.321-.76.148-.264.236-.761.236-1.492l.03-3.336c0-1.198-.09-2.076-.265-2.574-.176-.555-.588-.819-1.175-.819l-.117.03h-.118c-.5 0-.558-.06-.558-.498v-.292c0-.264.059-.439.148-.497.116-.06.41-.088.88-.088.441-.03.853-.117 1.265-.264.587-.205 1.057-.38 1.41-.585l.97-.643a.443.443 0 0 1 .322-.117s.118 0 .323.058zm-54.767 1.376c-1.058 0-1.91.439-2.585 1.346-.646.848-.97 2.018-.97 3.422 0 1.668.382 3.1 1.176 4.242.822 1.14 1.792 1.726 2.967 1.726 1.057 0 1.909-.44 2.557-1.317.674-.878.998-2.018.998-3.452 0-1.666-.41-3.071-1.204-4.241-.794-1.14-1.793-1.726-2.939-1.726zm34.375 5.264c-1.203.147-2.202.499-2.908 1.084-.734.556-1.116 1.228-1.116 2.047 0 .907.705 1.58 1.734 1.58.528 0 1.086-.205 1.646-.643.44-.322.644-.79.644-1.434v-2.634zm49.273-5.264c-.735 0-1.411.322-1.97.936-.557.615-.85 1.316-.85 2.136 0 .234.116.35.35.409h3.997c.441 0 .706-.029.823-.088.146-.059.236-.292.236-.643 0-.76-.265-1.375-.794-1.931-.5-.556-1.088-.82-1.792-.82zm-123.165 0c-.735 0-1.41.322-1.97.936-.557.615-.85 1.316-.85 2.136 0 .234.117.35.351.409h3.997c.44 0 .705-.029.823-.088.146-.059.235-.292.235-.643 0-.76-.265-1.375-.794-1.931-.5-.556-1.087-.82-1.792-.82zm93.255-7.225c.94 0 1.409.41 1.409 1.258 0 .614-.263 1.14-.82 1.638-.56.468-1.175.702-1.853.702-.969 0-1.469-.41-1.469-1.258 0-.585.294-1.14.852-1.609a2.773 2.773 0 0 1 1.88-.73zm18.656 0c.94 0 1.41.41 1.41 1.258 0 .614-.263 1.14-.821 1.638-.56.468-1.175.702-1.852.702-.97 0-1.47-.41-1.47-1.258 0-.585.294-1.14.852-1.609a2.776 2.776 0 0 1 1.881-.73z" fill="#4E4D43"/>
            <path d="M88.066 15.031c.205 0 .323.087.44.263l.089.146c.03.059.058.146.058.205 0 .176-.147.35-.44.439l-1.088.38a13.18 13.18 0 0 0-4.054 2.252c-.47.38-.941.848-1.41 1.375-.648.732-1.235 1.697-1.764 2.896a6.444 6.444 0 0 1 2.85-.643c1.793 0 3.262.614 4.437 1.813 1.205 1.17 1.793 2.662 1.793 4.476 0 1.931-.676 3.569-1.999 4.886-1.35 1.345-2.967 1.99-4.936 1.99-2.057 0-3.731-.674-4.995-1.99-1.293-1.346-1.91-3.072-1.91-5.208 0-2.925 1.234-5.704 3.732-8.307 1.821-1.902 3.966-3.306 6.493-4.242 1.323-.497 2.234-.731 2.704-.731zm-17.071.294c.147 0 .294.03.441.088l.146.058c.177.087.265.175.265.38 0 .03-.029.117-.059.234-.294 1.258-.44 3.042-.44 5.353v8.66c0 1.49.146 2.427.382 2.836.352.527 1.175.82 2.497.849.5.029.735.175.735.527v.29c0 .498-.147.616-.852.616-.236 0-.647-.03-1.234-.03-1.911-.058-2.998-.087-3.203-.087l-2.616.058c-.587 0-1.263.03-2.027.06h-.176c-.5 0-.735-.118-.735-.38v-.44c0-.38.264-.585.822-.614 1.205-.059 1.999-.35 2.322-.849.236-.38.352-1.404.352-3.041v-5.705c0-1.99-.029-3.189-.116-3.656-.09-.44-.295-.673-.647-.673-.176 0-.47.058-.911.146l-.676.146c-.44.088-.676.147-.735.147-.264 0-.41-.147-.41-.469v-.35c0-.322.234-.585.705-.732 2.38-.79 4.113-1.755 5.259-2.867.382-.38.676-.555.91-.555zm10.224 8.716c-1.587 0-2.38 1.14-2.38 3.394 0 1.754.411 3.334 1.234 4.65.823 1.317 1.763 1.99 2.85 1.99 1.529 0 2.469-1.433 2.469-3.715 0-1.668-.412-3.131-1.264-4.418-.822-1.257-1.822-1.901-2.91-1.901z" fill="#88619A"/>
        </g>
    </g>
</svg>
