<svg width="10" height="10" viewBox="0 0 10 10" xmlns="http://www.w3.org/2000/svg">
    <path d="M5.195 0C3.637 0 2.627.639 1.834 1.777c-.145.207-.1.49.102.643l.841.639a.47.47 0 0 0 .65-.08c.489-.614.852-.965 1.618-.965.601 0 1.344.386 1.344.968 0 .442-.364.666-.957 1-.692.39-1.608.872-1.608 2.079v.191c0 .26.21.469.469.469h1.416c.26 0 .469-.21.469-.469v-.113c0-.838 2.447-.871 2.447-3.137C8.623 1.295 6.854 0 5.195 0zM5 7.295c-.746 0-1.354.607-1.354 1.353 0 .747.608 1.354 1.354 1.354.746 0 1.354-.607 1.354-1.354 0-.746-.608-1.353-1.354-1.353z" fill="#FFF" fill-rule="evenodd"/>
</svg>
