<svg width="22" height="22" viewBox="0 0 22 22" xmlns="http://www.w3.org/2000/svg">
    <g fill="none" fill-rule="evenodd">
        <path d="m11.317 13.167-.312-.032-.3-.265.133-.427.347-.093.299.363-.167.454zm-.97-3.864h-.28l-.244-.28.244-.379.278.26.151.22-.15.179zm4.22 2.126-1.885-.518-1.314-1.149-.183-.527.13-.076 1.53.061 1.274 1.041.37-.715.857-.422-.364-.66.124-1.436-2.082-.36-.522-.587-.64-1.518-.677.147-.639-.536.16.818-.21.37-.514.09-.473-.46-1.52 2.893-1.175 1.239 1.047 1.267.12.858.704.004.844.643.082.558-.28.321-1.66-.069-.677-.978.322 1.656-.352.888.941.734.256.733.783-.228 1.049.228.114.27-.24.419.338.433.052.854.928-.41 1.022.14-.094-.838.389-.599.937-1.736 1.667-1.496-.539-.44v-.907z" fill="#1C7678"/>
        <path fill="#446125" d="m6.814 9.124 1.168 2.125 4.131 1.727-.08-.69-.73-.558-.721-.32-.827-.502-.796-.765z"/>
        <path fill="#5A753D" d="m9.748 10.92-.509 2.268 1.167.336zM14.568 11.428l.539 1.348-2.605 3.232-1.317-.668 1.022-2.27z"/>
        <path fill="#608449" d="m11.05 15.381.135-.041 1.317.668-.295 1.438-.608-.363-.255-.476z"/>
        <path fill="#446125" d="m11.344 16.607.37.36.493.479-1.95.27-.39-1.288.753-.131zM6.964 14.272 8.16 15.74h2.245l-.299-.629-1.074-.475z"/>
        <path fill="#5A753D" d="m15.107 7.028.239 2.096-1.227 1.137-.176-.818.086-.4.345-.967z"/>
        <path fill="#446125" d="m14.119 10.261-3.503-1.377-1.377.24-.554-.719 1.721-1.736 3.623 1.257v1.198z"/>
        <path fill="#5A753D" d="m11.185 7.667.217 2.474-.696-.434zM11.863 4.563l.639.879v1.077l-1.018-.808v-.497z"/>
        <path d="m11.005 13.135-.419-1.736 1.447.887-.55.628-.478.221zm-2.075-4.6 1.407-1.158.01 1.926-1.417-.768zm2.075 1.038.18-1.906 2.844 1.377 1.078-2.016-3.623-1.317.379-1.148-1.317-.389-.05 1.188-.429-.014-.558-.356-.993 1.936-1.702 2.196 2.934 1.796.32 2.185-.946-.129-2.128-1.248.125 1.656-.155.888 3.143.838-.24 1.318 1.477.18-.159-1.268 3.383-3.911-3.563-1.856z" fill="#709D53"/>
        <path fill="#99C26D" d="m10.496 5.362-.16 2.015L8.93 8.535l-2.116.589 2.695-4.132zM14.568 11.428l-2.535.858-1.028.849-.898 1.975 1.078.23zM11.005 9.573l-.419 1.826-.838-.48.599-1.616zM10.067 13.105l-3.103 1.167.03-2.544z"/>
        <path fill="#3F8F6F" d="M10.994.063 6.48 3.038 1.965 5.276v2.951H4.3V6.623L7.05 4.585l3.944-1.827 3.98 1.827 2.715 2.038v2.044h2.334V5.276L15.75 3.038z"/>
        <path fill="#3F8F6F" d="m.022 8.215 3.11 3.11 3.112-3.11z"/>
        <path fill="#54B08B" d="M10.994.063v2.695l6.695 3.865 2.334-1.347z"/>
        <path fill="#72C9A6" d="M10.994.063 1.965 5.276 4.3 6.623l6.695-3.865z"/>
        <path fill="#54B08B" d="M1.975 13.332v3.391l4.274 2.239 4.755 2.974 4.514-2.974 4.515-2.239v-2.95h-2.334v1.603l-2.751 2.038-3.944 1.827-3.98-1.827-2.715-2.038v-2.044z"/>
        <path fill="#54B08B" d="M15.754 13.785h6.222l-3.111-3.111z"/>
        <path fill="#3F8F6F" d="m1.975 16.723 9.029 5.213v-2.695l-6.695-3.865z"/>
        <path fill="#35785D" d="M11.004 19.241v2.695l9.029-5.212-2.334-1.348z"/>
    </g>
</svg>
