<svg width="23" height="22" viewBox="0 0 23 22" xmlns="http://www.w3.org/2000/svg">
    <g fill="none" fill-rule="evenodd">
        <path fill="#0070CF" d="M.867 22h22V0h-22z"/>
        <path d="M5.137 15.33v-3.454h3.657l.393.512.405-.512h13.275v3.216s-.347.235-.749.238h-7.35l-.443-.544v.544h-1.45v-.93s-.197.13-.626.13h-.493v.8H9.561l-.392-.522-.397.522H5.137M.867 9.273 1.69 7.35h1.427l.468 1.077V7.35h1.772l.28.779.27-.779h7.958v.392s.418-.392 1.106-.392l2.582.01.46 1.062V7.35h1.484l.408.61v-.61h1.497v3.454h-1.497l-.391-.612v.612h-2.18l-.22-.544h-.585l-.216.544h-1.478c-.592 0-.97-.383-.97-.383v.383h-2.229l-.442-.544v.544H2.906l-.219-.544h-.584l-.217.544H.866V9.273" fill="#FFF"/>
        <path d="M1.983 7.776.871 10.362h.724l.205-.517h1.193l.205.517h.74L2.827 7.776h-.844zm.412.602.363.905H2.03l.365-.905zM4.014 10.362V7.776l1.03.004.598 1.667.584-1.671h1.021v2.586h-.646V8.456l-.686 1.906h-.567l-.687-1.906v1.906h-.647M7.69 10.362V7.776H9.8v.578H8.342v.443h1.422v.544H8.343v.46h1.456v.56H7.69M10.174 7.776v2.586h.646v-.918h.273l.775.918h.79l-.85-.952c.348-.03.708-.33.708-.795 0-.544-.427-.839-.904-.839h-1.438zm.646.579h.74c.177 0 .306.138.306.272 0 .172-.168.272-.297.272h-.749v-.544zM12.78 10.362h.66V7.776h-.66zM15.006 10.362h-.143c-.69 0-1.108-.543-1.108-1.283 0-.757.414-1.303 1.285-1.303h.715v.612h-.741c-.354 0-.604.276-.604.698 0 .5.286.711.698.711h.17l-.272.565M16.413 7.776 15.3 10.362h.725l.205-.517h1.193l.204.517h.74l-1.11-2.586h-.844zm.411.602.364.905h-.728l.364-.905zM18.443 10.362V7.776h.822l1.05 1.625V7.776h.646v2.586h-.795l-1.077-1.667v1.667h-.646M5.58 14.888v-2.586h2.11v.578H6.233v.442h1.423v.545H6.233v.46H7.69v.56H5.58M15.918 14.888v-2.586h2.11v.578H16.57v.442h1.416v.545H16.57v.46h1.457v.56h-2.11M7.771 14.888 8.8 13.61 7.747 12.3h.815l.626.81.628-.81h.783l-1.038 1.294 1.03 1.293h-.815l-.608-.797-.594.797h-.803M10.667 12.302v2.586h.664v-.816h.68c.576 0 1.013-.306 1.013-.9 0-.492-.343-.87-.929-.87h-1.428zm.664.585h.716c.186 0 .32.114.32.298 0 .172-.133.297-.322.297h-.714v-.595zM13.304 12.302v2.586h.647v-.919h.272l.775.919h.79l-.85-.953c.349-.03.71-.33.71-.794 0-.545-.428-.84-.905-.84h-1.439zm.647.578h.739c.177 0 .306.139.306.272 0 .172-.167.273-.296.273h-.75v-.545zM18.327 14.888v-.562h1.294c.192 0 .274-.103.274-.217 0-.108-.082-.218-.274-.218h-.585c-.508 0-.79-.31-.79-.775 0-.414.258-.814 1.014-.814h1.259l-.273.582h-1.089c-.208 0-.272.109-.272.213 0 .107.08.225.238.225h.613c.567 0 .812.322.812.743 0 .452-.274.823-.843.823h-1.378M20.7 14.888v-.562h1.24c.19 0 .274-.103.274-.217 0-.108-.083-.218-.275-.218h-.53c-.508 0-.791-.31-.791-.775 0-.414.26-.814 1.015-.814h1.234l-.273.582h-1.063c-.209 0-.273.109-.273.213 0 .107.08.225.238.225h.558c.567 0 .813.322.813.743 0 .452-.274.823-.844.823H20.7" fill="#0070CF"/>
    </g>
</svg>
