<svg width="57" height="36" viewBox="0 0 57 36" xmlns="http://www.w3.org/2000/svg">
    <g fill-rule="nonzero" fill="none">
        <path d="M51.05 0H5.02l-.575.001c-.161.001-.323.003-.484.007-.352.01-.707.03-1.055.093a3.554 3.554 0 0 0-1.002.332A3.365 3.365 0 0 0 .431 1.91a3.56 3.56 0 0 0-.33 1.005 7.03 7.03 0 0 0-.093 1.057c-.004.162-.006.324-.007.486L0 5.035V31.53c.002.162.004.323.008.485.01.352.03.708.093 1.057.063.354.167.684.33 1.005a3.36 3.36 0 0 0 1.474 1.477c.32.164.65.268 1.002.332.348.062.703.084 1.055.093a73.73 73.73 0 0 0 1.06.008H51.05l.574-.001c.162-.001.323-.003.485-.007.351-.01.706-.03 1.055-.093a3.543 3.543 0 0 0 1.002-.332 3.348 3.348 0 0 0 1.473-1.477c.164-.321.268-.65.33-1.005.063-.349.084-.705.093-1.057.005-.162.007-.323.007-.485.002-.193.002-.385.002-.577V5.034c0-.192 0-.384-.002-.576 0-.162-.002-.324-.007-.486a7.029 7.029 0 0 0-.093-1.057 3.538 3.538 0 0 0-.33-1.005A3.387 3.387 0 0 0 54.166.433 3.557 3.557 0 0 0 53.164.1a7.042 7.042 0 0 0-1.055-.093 24.13 24.13 0 0 0-.485-.007L51.05 0z" fill="#000"/>
        <path d="M51.05 1.2h.566c.153.002.307.003.46.008.27.007.583.021.876.074.254.046.467.116.672.22a2.165 2.165 0 0 1 .95.954c.103.203.173.416.218.673.052.29.067.605.074.876.004.153.006.306.007.462l.001.568v25.919l-.001.571c0 .153-.003.306-.007.459-.007.27-.022.585-.075.879a2.332 2.332 0 0 1-.218.67 2.172 2.172 0 0 1-.951.954 2.338 2.338 0 0 1-.668.22 6.069 6.069 0 0 1-.872.074c-.155.003-.309.005-.467.006-.188.002-.377.002-.565.002H5.014c-.186 0-.373 0-.562-.002-.155 0-.309-.003-.458-.006a6.08 6.08 0 0 1-.875-.075 2.346 2.346 0 0 1-.673-.22 2.158 2.158 0 0 1-.949-.952 2.36 2.36 0 0 1-.218-.675 5.949 5.949 0 0 1-.075-.875 22.478 22.478 0 0 1-.007-.46V4.465c.001-.153.003-.307.007-.46.007-.269.022-.583.075-.879.045-.254.115-.467.22-.673a2.164 2.164 0 0 1 .949-.951c.204-.104.417-.174.67-.22.293-.053.608-.067.876-.074.154-.005.307-.006.46-.007L5.02 1.2H51.05" fill="#FFF"/>
        <g fill="#000">
            <path d="M15.307 12.104c.48-.602.806-1.41.72-2.236-.703.035-1.56.465-2.057 1.067-.446.516-.84 1.358-.738 2.15.79.068 1.578-.396 2.075-.98M16.018 13.24c-1.146-.07-2.12.651-2.667.651-.547 0-1.385-.617-2.291-.6-1.18.017-2.274.685-2.873 1.749-1.23 2.127-.325 5.283.872 7.015.582.857 1.282 1.801 2.206 1.767.872-.034 1.214-.566 2.274-.566s1.368.566 2.291.549c.957-.017 1.556-.858 2.137-1.716.667-.977.94-1.92.958-1.972-.018-.017-1.847-.72-1.864-2.83-.017-1.767 1.436-2.607 1.505-2.659-.821-1.217-2.103-1.354-2.548-1.389"/>
            <g>
                <path d="M25.994 10.849c2.49 0 4.224 1.72 4.224 4.226 0 2.515-1.77 4.245-4.287 4.245h-2.757v4.395h-1.992V10.85h4.812zm-2.82 6.794h2.286c1.734 0 2.721-.936 2.721-2.559 0-1.623-.987-2.55-2.712-2.55h-2.295v5.11zM30.739 21.05c0-1.641 1.254-2.649 3.477-2.774l2.561-.151v-.722c0-1.044-.702-1.668-1.876-1.668-1.112 0-1.806.535-1.975 1.373h-1.814c.107-1.694 1.548-2.942 3.86-2.942 2.268 0 3.717 1.203 3.717 3.085v6.464h-1.84v-1.542h-.045c-.542 1.043-1.725 1.703-2.953 1.703-1.832 0-3.112-1.142-3.112-2.827zm6.038-.848v-.74l-2.303.143c-1.147.08-1.797.588-1.797 1.39 0 .821.676 1.356 1.708 1.356 1.343 0 2.392-.927 2.392-2.149zM40.428 27.166v-1.56c.142.035.462.035.622.035.89 0 1.37-.374 1.663-1.337 0-.018.169-.57.169-.58l-3.38-9.389h2.081l2.366 7.633h.036l2.366-7.633h2.027l-3.504 9.87c-.8 2.274-1.725 3.006-3.664 3.006-.16 0-.64-.018-.782-.045z"/>
            </g>
        </g>
    </g>
</svg>
