<svg width="29" height="22" viewBox="0 0 29 22" xmlns="http://www.w3.org/2000/svg">
    <g fill-rule="nonzero" fill="none">
        <path fill="#FF5F00" d="M10.758 4.082h7.733V17.92h-7.733z"/>
        <path d="M11.249 11a8.772 8.772 0 0 1 3.375-6.918C11.001 1.246 5.797 1.658 2.67 5.03a8.773 8.773 0 0 0 0 11.941c3.127 3.372 8.331 3.785 11.954.948a8.772 8.772 0 0 1-3.375-6.918z" fill="#EB001B"/>
        <path d="M28.923 11a8.797 8.797 0 0 1-4.975 7.916 8.868 8.868 0 0 1-9.324-.997A8.788 8.788 0 0 0 18 11.001c0-2.7-1.244-5.25-3.376-6.92a8.868 8.868 0 0 1 9.324-.996 8.797 8.797 0 0 1 4.975 7.916zM28.14 17.112v-.83h.155v-.168h-.393v.169h.154v.83h.085zm.762 0v-1h-.12l-.138.688-.139-.688h-.12v1h.085v-.754l.13.65h.088l.13-.652v.756h.084z" fill="#F79E1B"/>
    </g>
</svg>
