<svg width="91" height="22" viewBox="0 0 91 22" xmlns="http://www.w3.org/2000/svg">
    <g fill-rule="nonzero" fill="none">
        <path d="M33.74 4.938h-4.994a.694.694 0 0 0-.685.587l-2.02 12.832a.416.416 0 0 0 .412.482h2.384a.694.694 0 0 0 .685-.588l.545-3.46a.693.693 0 0 1 .685-.588h1.58c3.29 0 5.188-1.596 5.684-4.757.223-1.383.01-2.47-.637-3.23-.71-.836-1.968-1.278-3.64-1.278zm.576 4.687c-.273 1.796-1.642 1.796-2.966 1.796h-.754l.529-3.354a.416.416 0 0 1 .411-.352h.345c.902 0 1.753 0 2.192.515.262.308.343.764.243 1.395zm14.35-.058h-2.392c-.203 0-.38.15-.41.352l-.107.67-.167-.243c-.518-.753-1.672-1.004-2.824-1.004-2.642 0-4.9 2.005-5.339 4.819-.228 1.403.097 2.745.891 3.681.729.86 1.771 1.22 3.012 1.22 2.129 0 3.31-1.373 3.31-1.373l-.107.666a.417.417 0 0 0 .41.483h2.154a.694.694 0 0 0 .686-.588l1.292-8.201a.415.415 0 0 0-.41-.482zm-3.334 4.664c-.23 1.37-1.315 2.288-2.697 2.288-.695 0-1.25-.223-1.606-.646-.353-.42-.488-1.018-.375-1.684.215-1.357 1.318-2.306 2.68-2.306.678 0 1.23.226 1.594.653.364.43.509 1.032.404 1.695zM61.4 9.567h-2.403a.696.696 0 0 0-.574.305l-3.314 4.892-1.405-4.7a.696.696 0 0 0-.666-.497h-2.361a.417.417 0 0 0-.395.552l2.647 7.784-2.489 3.52a.417.417 0 0 0 .34.659h2.4a.692.692 0 0 0 .57-.299l7.992-11.561a.417.417 0 0 0-.342-.655z" fill="#253B80"/>
        <path d="M69.356 4.938h-4.994a.694.694 0 0 0-.685.587l-2.02 12.832a.416.416 0 0 0 .41.482h2.563a.486.486 0 0 0 .48-.412l.572-3.637a.693.693 0 0 1 .685-.587h1.58c3.29 0 5.188-1.596 5.684-4.757.224-1.383.009-2.47-.637-3.23-.71-.836-1.967-1.278-3.638-1.278zm.576 4.687c-.273 1.796-1.642 1.796-2.966 1.796h-.753l.53-3.354a.415.415 0 0 1 .41-.352h.345c.901 0 1.752 0 2.192.515.262.308.342.764.242 1.395zm14.349-.058h-2.39c-.205 0-.38.15-.41.352l-.106.67-.168-.243c-.518-.753-1.671-1.004-2.824-1.004-2.642 0-4.898 2.005-5.337 4.819-.228 1.403.095 2.745.89 3.681.73.86 1.77 1.22 3.011 1.22 2.13 0 3.31-1.373 3.31-1.373l-.107.666a.417.417 0 0 0 .412.483h2.153a.694.694 0 0 0 .685-.588l1.293-8.201a.418.418 0 0 0-.412-.482zm-3.333 4.664c-.23 1.37-1.315 2.288-2.698 2.288-.693 0-1.25-.223-1.606-.646-.353-.42-.486-1.018-.375-1.684.217-1.357 1.318-2.306 2.68-2.306.679 0 1.23.226 1.594.653.366.43.51 1.032.405 1.695zm6.152-8.94-2.05 13.066a.416.416 0 0 0 .41.482h2.06a.693.693 0 0 0 .687-.588l2.02-12.831a.417.417 0 0 0-.41-.482H87.51a.417.417 0 0 0-.41.352z" fill="#179BD7"/>
        <path d="m5.305 21.332.382-2.43-.85-.02H.774L3.597.945a.237.237 0 0 1 .08-.14.23.23 0 0 1 .15-.056h6.848c2.274 0 3.843.474 4.662 1.41.384.44.629.898.747 1.403.124.53.126 1.163.005 1.935l-.009.056v.495l.384.218c.324.172.58.368.778.594.328.375.54.852.63 1.418.093.582.063 1.274-.09 2.057-.174.902-.458 1.687-.84 2.33a4.787 4.787 0 0 1-1.333 1.463 5.4 5.4 0 0 1-1.794.811c-.662.173-1.416.26-2.243.26h-.533c-.381 0-.752.138-1.042.384a1.618 1.618 0 0 0-.543.972l-.04.219-.675 4.284-.03.157c-.009.05-.023.075-.043.092a.113.113 0 0 1-.07.025H5.305z" fill="#253B80"/>
        <path d="M16.828 5.61c-.02.131-.044.265-.07.402-.903 4.648-3.993 6.253-7.94 6.253H6.81a.976.976 0 0 0-.964.828l-1.03 6.539-.29 1.853a.515.515 0 0 0 .507.596h3.564c.422 0 .78-.307.847-.725l.035-.181.67-4.267.044-.234a.858.858 0 0 1 .847-.726h.533c3.452 0 6.155-1.405 6.945-5.47.33-1.699.16-3.117-.714-4.114-.264-.301-.592-.55-.975-.754z" fill="#179BD7"/>
        <path d="M15.883 5.232a7.111 7.111 0 0 0-.878-.195 11.135 11.135 0 0 0-1.772-.13H7.866a.857.857 0 0 0-.846.726l-1.143 7.249-.032.211a.976.976 0 0 1 .964-.828h2.01c3.946 0 7.036-1.606 7.939-6.253.027-.137.05-.271.07-.402a4.809 4.809 0 0 0-.945-.378z" fill="#222D65"/>
        <path d="M7.02 5.633a.855.855 0 0 1 .846-.725h5.367c.636 0 1.23.042 1.772.13a7.111 7.111 0 0 1 1.081.258c.266.089.514.193.743.314.268-1.717-.003-2.887-.93-3.945C14.88.499 13.036 0 10.677 0H3.827a.98.98 0 0 0-.967.829L.007 18.949a.59.59 0 0 0 .58.683h4.229l1.061-6.75L7.02 5.633z" fill="#253B80"/>
    </g>
</svg>
