<svg width="33" height="22" viewBox="0 0 33 22" xmlns="http://www.w3.org/2000/svg" xmlns:xlink="http://www.w3.org/1999/xlink">
    <defs>
        <linearGradient x1="0%" y1="50%" x2="100%" y2="50%" id="b">
            <stop stop-color="#231F5D" offset="0%"/>
            <stop stop-color="#024DA1" offset="100%"/>
        </linearGradient>
        <path d="M20.763 0c-2.52.014-4.292 1.366-4.306 3.298-.017 1.438 1.277 2.238 2.252 2.716 1.001.49 1.337.803 1.333 1.24-.007.67-.799.965-1.539.977-1.293.02-2.043-.35-2.641-.63l-.466 2.186c.6.277 1.71.518 2.86.53 2.702 0 4.468-1.339 4.477-3.414.01-2.633-3.628-2.779-3.603-3.955.008-.358.348-.739 1.09-.836.369-.048 1.385-.086 2.536.446l.452-2.116A6.895 6.895 0 0 0 20.839 0h-.076zm6.79.182c-.495 0-.91.288-1.095.732l-3.86 9.247h2.7l.537-1.49h3.299l.31 1.49h2.379L29.747.182h-2.195zm.376 2.697.779 3.746h-2.133L27.93 2.88zM13.186.182l-2.127 9.98h2.571l2.126-9.98h-2.57zm-3.805 0L6.705 6.974 5.622 1.2C5.495.555 4.994.182 4.436.182H.061L0 .472c.898.196 1.919.512 2.537.849.378.206.486.386.61.877l2.051 7.963h2.718L12.082.182h-2.7z" id="a"/>
    </defs>
    <g transform="translate(.235 5.867)" fill="none" fill-rule="evenodd">
        <mask id="c" fill="#fff">
            <use xlink:href="#a"/>
        </mask>
        <path d="M20.763 0c-2.52.014-4.292 1.366-4.306 3.298-.017 1.438 1.277 2.238 2.252 2.716 1.001.49 1.337.803 1.333 1.24-.007.67-.799.965-1.539.977-1.293.02-2.043-.35-2.641-.63l-.466 2.186c.6.277 1.71.518 2.86.53 2.702 0 4.468-1.339 4.477-3.414.01-2.633-3.628-2.779-3.603-3.955.008-.358.348-.739 1.09-.836.369-.048 1.385-.086 2.536.446l.452-2.116A6.895 6.895 0 0 0 20.839 0h-.076zm6.79.182c-.495 0-.91.288-1.095.732l-3.86 9.247h2.7l.537-1.49h3.299l.31 1.49h2.379L29.747.182h-2.195zm.376 2.697.779 3.746h-2.133L27.93 2.88zM13.186.182l-2.127 9.98h2.571l2.126-9.98h-2.57zm-3.805 0L6.705 6.974 5.622 1.2C5.495.555 4.994.182 4.436.182H.061L0 .472c.898.196 1.919.512 2.537.849.378.206.486.386.61.877l2.051 7.963h2.718L12.082.182h-2.7z" fill="url(#b)" mask="url(#c)"/>
    </g>
</svg>
